<?xml version="1.0" standalone="no"?><!DOCTYPE svg PUBLIC "-//W3C//DTD SVG 1.1//EN" "http://www.w3.org/Graphics/SVG/1.1/DTD/svg11.dtd"><svg t="1783577534117" class="icon" viewBox="0 0 1024 1024" version="1.1" xmlns="http://www.w3.org/2000/svg" p-id="2802" xmlns:xlink="http://www.w3.org/1999/xlink" width="200" height="200"><path d="M629.037176 533.504h233.411765v66.740706H629.037176V533.504z m0-133.360941h233.411765V466.823529H629.037176V400.143059z m0 266.782117h233.411765v66.680471H629.037176v-66.680471zM30.117647 281.419294v533.504h533.624471V281.298824H30.117647z m339.365647 418.816L296.96 591.691294l-32.707765 48.911059h32.707765v59.632941H132.879059l119.145412-175.465412-105.532236-157.997176h88.064l62.464 91.858823L359.363765 366.832941h88.064L341.775059 524.649412l119.205647 175.525647H369.543529z m574.102588-522.842353L816.609882 50.236235C788.901647 22.648471 734.388706 0 695.235765 0H268.528941a71.318588 71.318588 0 0 0-71.077647 71.077647v143.540706h56.862118V71.077647A14.456471 14.456471 0 0 1 268.649412 56.862118h426.706823c4.216471 0 9.035294 0.602353 14.155294 1.566117v226.002824h226.123295c0.963765 5.12 1.566118 33.189647 1.566117 37.526588v607.292235a14.456471 14.456471 0 0 1-14.336 14.155294H268.528941a14.456471 14.456471 0 0 1-14.275765-14.155294v-47.706353h-56.862117v47.706353a71.258353 71.258353 0 0 0 71.077647 71.077647H922.804706a71.258353 71.258353 0 0 0 71.077647-71.077647V322.078118c0.060235-39.152941-22.588235-117.157647-50.296471-144.745412z m-177.212235 50.236235V82.281412c3.553882 2.409412 6.866824 5.240471 9.878588 8.31247l126.976 126.976c3.072 3.072 5.903059 6.445176 8.372706 10.059294h-145.227294z" fill="#616161" p-id="2803"></path></svg>