<?xml version="1.0" standalone="no"?><!DOCTYPE svg PUBLIC "-//W3C//DTD SVG 1.1//EN" "http://www.w3.org/Graphics/SVG/1.1/DTD/svg11.dtd"><svg t="1775034815280" class="icon" viewBox="0 0 1024 1024" version="1.1" xmlns="http://www.w3.org/2000/svg" p-id="119811" xmlns:xlink="http://www.w3.org/1999/xlink" width="200" height="200"><path d="M910.104609 248.342329h-56.346075v-145.061172q-2.397705-45.556401-35.96558-75.527718t-77.925423-27.573611H272.314993q-20.380495 0-39.562137 7.193116t-33.567875 21.579348q-14.386232 14.386232-22.178774 33.567874t-6.59369 40.760991v145.061172h-67.135749q-21.579348-1.198853-40.76099 6.593689t-33.567875 22.178774q-14.386232 14.386232-21.579348 33.567875t-7.193116 40.76099v389.627115q-2.397705 44.357548 27.573612 77.325997t75.527717 35.366153h67.135749v62.340339q0 44.357548 31.769596 76.127143t76.127144 31.769596h467.552537q44.357548 0 76.127144-31.769596t31.769596-76.127143v-62.340339h56.346075q45.556401-2.397705 78.524849-34.766727t35.366154-77.925423v-389.627115q-2.397705-45.556401-35.96558-75.527717t-77.925423-27.573611z m-677.351753-145.061172q-1.198853-17.98279 10.789673-29.971317t28.772464-10.789674h467.552538q19.181643 0 35.366153 10.789674t16.184511 29.971317v145.061172H232.752856z m558.665339 607.818299v205.003805q0 19.181643-13.187379 32.369021t-32.369022 13.18738H278.309257q-19.181643 0-32.369022-13.18738t-13.187379-32.369021v-205.003805q0-17.98279 13.187379-31.769596t32.369022-13.786806h467.552537q19.181643 0 32.369022 13.18738t13.187379 32.369022z m170.237078-359.655799v389.627115q-1.198853 20.380495-15.585084 34.766727t-35.96558 15.585085h-56.346075v-79.124276q0-44.357548-31.769596-75.527717t-76.127144-31.17017H278.309257q-44.357548 0-76.127144 31.17017t-31.769596 75.527717v79.124276h-67.135749q-19.181643-2.397705-31.170169-17.383364t-9.590821-34.167301v-388.428262q-1.198853-17.98279 10.789674-29.971316t29.971316-10.789674h806.827841q19.181643 0 35.366153 10.789674t16.184511 29.971316z m-766.06685 52.749518h-46.755254q-4.795411-1.198853-8.391968-5.994264t-3.596558-10.190247q0-5.394837 3.596558-10.190248t8.391968-4.795411h46.755254q10.789674-2.397705 16.783937 6.59369t0 17.383364q-5.994263 8.391969-16.783937 7.193116z m111.493298 0h-50.351812q-10.789674 1.198853-16.783937-7.193116t0-17.383364q5.994263-8.991395 16.783937-6.59369h50.351812q5.994263 0 9.590821 4.795411t3.596558 10.190248q0 5.394837-3.596558 10.190247t-9.590821 5.994264z m511.910086 139.066908H195.588423q-4.795411-1.198853-8.991395-5.394837t-4.195984-10.190247q0-5.994263 4.195984-10.190248t8.991395-5.394837h623.403384q5.994263 1.198853 9.590821 5.394837t3.596558 10.190248q0 5.994263-3.596558 10.190247t-9.590821 5.394837z" p-id="119812"></path></svg>